<?xml version="1.0" encoding="UTF-8" standalone="no"?>
<svg xmlns="http://www.w3.org/2000/svg" viewBox="0 0 168 168">
  <path fill="#1ED760" d="M83.996 0C37.747 0 0 37.747 0 84c0 46.251 37.747 84 83.996 84 46.254 0 84.004-37.749 84.004-84 0-46.253-37.75-84-84.004-84zm38.326 121.091c-1.513 2.468-4.754 3.24-7.223 1.73-19.791-12.092-44.699-14.843-74.012-8.139-2.809.644-5.609-1.117-6.249-3.925-.643-2.809 1.11-5.609 3.926-6.249 32.068-7.323 59.633-4.172 81.909 9.359 2.47 1.512 3.236 4.754 1.73 7.224zm10.231-22.792c-1.891 3.073-5.91 4.037-8.981 2.15-22.667-13.923-57.232-17.961-83.997-9.819-3.464 1.043-7.136-.745-8.181-4.226-1.038-3.469.751-7.137 4.226-8.178 30.689-9.315 68.838-4.798 94.989 11.089 3.068 1.886 4.032 5.91 2.144 8.984zm.886-23.744c-27.164-16.13-71.996-17.626-97.979-9.764-4.157 1.257-8.567-1.089-9.824-5.25-1.258-4.159 1.089-8.559 5.252-9.82 29.581-8.975 78.756-7.243 109.831 11.202 3.722 2.209 4.943 7.016 2.737 10.733-2.2 3.722-7.02 4.949-10.73 2.739z"/>
</svg>
